<?xml version="1.0" encoding="utf-8"?>
<!-- Generator: Adobe Illustrator 27.4.1, SVG Export Plug-In . SVG Version: 6.00 Build 0)  -->
<svg version="1.1" id="Layer_1" xmlns="http://www.w3.org/2000/svg" xmlns:xlink="http://www.w3.org/1999/xlink" x="0px" y="0px"
	 viewBox="0 0 1774.3 2880" style="enable-background:new 0 0 1774.3 2880;" xml:space="preserve">
<style type="text/css">
	.st0{opacity:0.5;fill:#0099FF;enable-background:new    ;}
</style>
<path class="st0" d="M1699.1,1440l7.5-26.7c7.5-26.6,22.6-80.3,20.1-133.3c-2.7-53.3-22.4-107-22.6-160c0.1-53.3,19.9-107,32.6-160
	c12.7-53.3,17.4-107,15-160c-2.3-53.3-12.7-107-32.6-160c-20.1-53.3-50.1-107-47.6-160c2.7-53.3,37.5-107,40.1-160
	c2.5-53.3-27.6-107-45.1-160c-17.7-53.3-22.4-107-25.1-133l-2.5-27h135.3v26.7c0,26.6,0,80.3,0,133.3c0,53.3,0,107,0,160
	c0,53.3,0,107,0,160c0,53.3,0,107,0,160c0,53.3,0,107,0,160c0,53.3,0,107,0,160c0,53.3,0,107,0,160c0,53.3,0,107,0,160
	c0,53.3,0,107,0,133v27H1699.1z"/>
    
<path class="st0" d="M1774.2,1440v27c0,26,0,79.7,0,133c0,53,0,106.7,0,160c0,53,0,106.7,0,160c0,53,0,106.7,0,160
	c0,53,0,106.7,0,160c0,53,0,106.7,0,160c0,53,0,106.7,0,160c0,53,0,106.7,0,160c0,53,0,106.7,0,133.3v26.7h-135.3l2.5-27
	c2.7-26,7.4-79.7,25.1-133c17.5-53,47.6-106.7,45.1-160c-2.6-53-37.4-106.7-40.1-160c-2.5-53,27.5-106.7,47.6-160
	c19.9-53,30.3-106.7,32.6-160c2.4-53-2.3-106.7-15-160c-12.7-53-32.5-106.7-32.6-160c0.2-53,19.9-106.7,22.6-160
	c2.5-53-12.6-106.7-20.1-133.3l-7.5-26.7H1774.2z"/>
</svg>
